<svg width="200" height="200" viewBox="0 0 200 200" xmlns="http://www.w3.org/2000/svg" role="img" aria-labelledby="title desc">
<title id="title">Santa</title>
<desc id="desc">A friendly Santa illustration</desc>
<g fill="none" fill-rule="evenodd">
  <circle cx="100" cy="100" r="96" fill="#F2D7C4"/>
  <path d="M30 96c6-36 34-62 70-62s63 27 70 62" fill="#D9252A"/>
  <path d="M42 101c4-28 30-48 58-48s54 20 58 48" fill="#E7464A"/>
  <path d="M54 122c0-30 21-51 46-51 25 0 46 21 46 51 0 30-21 51-46 51-25 0-46-21-46-51Z" fill="#FFF"/>
  <path d="M70 125c0-11 9-21 30-21 22 0 30 10 30 21s-8 21-30 21c-21 0-30-10-30-21Z" fill="#F8B49A"/>
  <circle cx="80" cy="116" r="6" fill="#3C2A20"/>
  <circle cx="120" cy="116" r="6" fill="#3C2A20"/>
  <path d="M92 140c5 4 11 6 18 6 6 0 12-2 16-5" stroke="#3C2A20" stroke-width="4" stroke-linecap="round"/>
  <rect x="38" y="90" width="124" height="20" rx="10" fill="#FFF"/>
  <circle cx="60" cy="90" r="8" fill="#FFF"/>
  <circle cx="140" cy="90" r="8" fill="#FFF"/>
  <circle cx="48" cy="80" r="5" fill="#FFF"/>
  <circle cx="152" cy="80" r="5" fill="#FFF"/>
  <path d="M82 67c4-6 11-10 18-10 7 0 14 4 18 10" stroke="#FFF" stroke-width="7" stroke-linecap="round"/>
  <path d="M68 158c12 8 24 12 32 12 10 0 21-4 32-12l-8 18c-5 3-15 6-24 6-9 0-19-3-24-6l-8-18Z" fill="#D9252A"/>
  <circle cx="100" cy="164" r="6" fill="#F7C948"/>
</g>
</svg>
